<svg width="35" height="35" viewBox="0 0 35 35" fill="none" xmlns="http://www.w3.org/2000/svg">
<g clip-path="url(#clip0_1_419)">
<path d="M33.5918 21.2898C33.5836 20.8933 33.5726 20.4969 33.5754 20.1004C33.5945 18.2437 33.4988 16.3269 32.8781 14.5578C32.2656 12.8133 31.1609 11.5418 29.914 10.2211C28.0136 8.20584 26.0203 6.1742 23.3926 5.13787C20.8277 4.12615 18.0742 4.30662 15.6242 5.54803C14.2269 6.2617 12.9801 7.22967 11.7605 8.20311C10.9156 8.87576 10.109 9.58944 9.31052 10.3195C8.07732 11.4488 6.93708 12.6847 5.87888 13.9781C4.02224 16.2504 2.26677 18.7769 1.66794 21.7C1.33161 23.3433 1.38357 25.0086 1.41091 26.6738C1.43825 28.3226 1.30427 31.6066 2.62497 32.9027C4.01403 34.2617 6.17419 34.1551 7.97614 34.2152C12.7394 34.3793 17.2812 33.7039 21.8285 32.2875C24.6449 31.4097 27.5324 30.4637 30.0726 28.9379C30.7234 28.5496 31.3468 28.1176 31.932 27.6363C32.0468 27.5433 32.159 27.4449 32.2683 27.3492C33.6984 26.1051 33.6273 23.007 33.5918 21.2898Z" fill="#FCC21B"/>
<path d="M9.37342 34.907C8.90311 34.907 8.42733 34.8988 7.95702 34.8824L7.3746 34.866C5.59999 34.825 3.59022 34.7785 2.16014 33.3785C0.776549 32.025 0.762877 29.1484 0.749205 27.2426C0.749205 27.043 0.749205 26.8543 0.743736 26.682L0.741002 26.3949C0.713658 24.8144 0.68358 23.182 1.01444 21.5633C1.65975 18.3996 3.57381 15.7363 5.3621 13.5516C6.4996 12.157 7.67811 10.9047 8.85936 9.82186C9.52108 9.21757 10.3988 8.43007 11.3422 7.67811C12.6301 6.65272 13.9015 5.67382 15.3207 4.94921C16.8082 4.19452 18.375 3.81171 19.9801 3.81171C21.2297 3.81171 22.4574 4.04686 23.6359 4.51444C26.3129 5.56991 28.2816 7.51405 30.398 9.75897C31.6586 11.0933 32.8453 12.4496 33.507 14.3336C34.1851 16.2641 34.259 18.334 34.2426 20.1058C34.2398 20.4148 34.2453 20.7266 34.2535 21.0383L34.259 21.2762C34.3 23.2012 34.3683 26.4031 32.7113 27.8523C32.5965 27.9535 32.4789 28.0519 32.3613 28.1504C31.7485 28.6513 31.0996 29.1064 30.4199 29.5121C27.8523 31.0515 24.9867 32.0058 22.0308 32.9273C17.7488 34.259 13.609 34.907 9.37342 34.907ZM19.9828 5.15155C18.591 5.15155 17.2265 5.48514 15.9305 6.14413C14.6207 6.81132 13.4558 7.70819 12.1789 8.72538C11.2683 9.45272 10.4098 10.2211 9.76444 10.8117C8.62967 11.848 7.49764 13.0566 6.39842 14.3992C4.71405 16.4609 2.9121 18.9547 2.3242 21.834C2.02342 23.3133 2.05077 24.8008 2.07538 26.3785L2.08085 26.6656C2.08358 26.8406 2.08631 27.032 2.08631 27.2398C2.09452 28.8203 2.11092 31.4617 3.0953 32.4269C4.1453 33.4578 5.80506 33.4961 7.40467 33.5316L8.00077 33.548C8.45467 33.5644 8.91678 33.5726 9.37069 33.5726H9.37342C13.4723 33.5726 17.4836 32.9437 21.6344 31.6531C24.5109 30.7562 27.2945 29.832 29.7336 28.3691C30.3762 27.9836 30.975 27.5625 31.5137 27.1223C31.6203 27.0348 31.7269 26.9418 31.8336 26.8488C33.0203 25.8125 32.9574 22.8894 32.9246 21.3199L32.9191 21.0738C32.9109 20.7512 32.9055 20.423 32.9082 20.1004C32.9246 18.4461 32.8617 16.5183 32.2492 14.782C31.675 13.1469 30.6305 11.9574 29.4273 10.6832C27.423 8.55585 25.5664 6.71835 23.1465 5.76405C22.1293 5.35389 21.0629 5.15155 19.9828 5.15155Z" fill="#FCC21B"/>
<path d="M33.5918 21.2899C33.5836 20.8934 33.5727 20.4969 33.5754 20.1004C33.5945 18.2438 33.4988 16.327 32.8781 14.5578C32.2656 12.8133 31.1609 11.5418 29.9141 10.2211C28.0137 8.20587 26.0203 6.17423 23.3926 5.1379C20.8277 4.12618 18.0742 4.30665 15.6242 5.54806C14.227 6.26173 12.9801 7.2297 11.7605 8.20314C10.9156 8.87579 10.109 9.58947 9.31055 10.3195C8.07735 11.4488 6.93711 12.6848 5.87891 13.9781C4.02227 16.2504 2.2668 18.777 1.66797 21.7C1.33164 23.3434 1.3836 25.0086 1.41094 26.6738C1.43828 28.3227 1.3043 31.6067 2.625 32.9027C4.01407 34.2617 6.17422 34.1551 7.97617 34.2152C12.7395 34.3793 17.2813 33.7039 21.8285 32.2875C24.6449 31.4098 27.5324 30.4637 30.0727 28.9379C30.7234 28.5496 31.3469 28.1176 31.932 27.6363C32.0469 27.5434 32.159 27.4449 32.2684 27.3492C33.6984 26.1051 33.6273 23.007 33.5918 21.2899Z" fill="#FCC21B"/>
<mask id="mask0_1_419" style="mask-type:luminance" maskUnits="userSpaceOnUse" x="1" y="4" width="33" height="31">
<path d="M33.5918 21.2899C33.5836 20.8934 33.5727 20.4969 33.5754 20.1004C33.5945 18.2438 33.4988 16.327 32.8781 14.5578C32.2656 12.8133 31.1609 11.5418 29.9141 10.2211C28.0137 8.20587 26.0203 6.17423 23.3926 5.1379C20.8277 4.12618 18.0742 4.30665 15.6242 5.54806C14.227 6.26173 12.9801 7.2297 11.7605 8.20314C10.9156 8.87579 10.109 9.58947 9.31055 10.3195C8.07735 11.4488 6.93711 12.6848 5.87891 13.9781C4.02227 16.2504 2.2668 18.777 1.66797 21.7C1.33164 23.3434 1.3836 25.0086 1.41094 26.6738C1.43828 28.3227 1.3043 31.6067 2.625 32.9027C4.01407 34.2617 6.17422 34.1551 7.97617 34.2152C12.7395 34.3793 17.2813 33.7039 21.8285 32.2875C24.6449 31.4098 27.5324 30.4637 30.0727 28.9379C30.7234 28.5496 31.3469 28.1176 31.932 27.6363C32.0469 27.5434 32.159 27.4449 32.2684 27.3492C33.6984 26.1051 33.6273 23.007 33.5918 21.2899Z" fill="white"/>
</mask>
<g mask="url(#mask0_1_419)">
<path d="M6.825 26.4524C6.59258 26.436 6.36015 26.4223 6.11953 26.4223C5.47422 26.4223 4.86718 26.3895 4.23554 26.3211C3.63945 26.2555 2.96133 26.1844 2.38437 25.9848C1.99609 25.8535 1.46562 25.4817 1.03906 25.5992C0.976169 25.9711 1.09922 26.2883 1.11289 26.6438C1.12383 26.9774 1.04179 27.3137 1.03633 27.6446C1.01718 28.8203 0.73281 29.5969 2.03164 30.0262C4.34218 30.7863 6.81406 30.7809 9.24218 30.7809C10.0844 30.7781 10.8992 30.6852 11.7277 30.5266C12.4414 30.3953 13.1824 30.4008 13.907 30.3324C17.3715 30.018 20.7211 28.7957 24.0078 27.7238C25.8973 27.1086 27.7758 26.4442 29.5805 25.6074C30.8738 25.0086 33.7559 23.9778 34.2234 22.4684C34.4777 21.6481 34.3875 20.4559 34.1879 19.6438C33.9937 19.6438 33.775 19.8461 33.5973 19.95C33.3402 20.0977 33.0477 20.2399 32.777 20.3875C32.1727 20.7211 31.4918 20.9535 30.8547 21.2461C29.4711 21.8832 28.0082 22.2879 26.5809 22.7992C20.4176 25.0086 13.4285 26.909 6.825 26.4524Z" fill="white"/>
<mask id="mask1_1_419" style="mask-type:luminance" maskUnits="userSpaceOnUse" x="0" y="19" width="35" height="12">
<path d="M6.825 26.4524C6.59258 26.436 6.36015 26.4223 6.11953 26.4223C5.47422 26.4223 4.86718 26.3895 4.23554 26.3211C3.63945 26.2555 2.96133 26.1844 2.38437 25.9848C1.99609 25.8535 1.46562 25.4817 1.03906 25.5992C0.976169 25.9711 1.09922 26.2883 1.11289 26.6438C1.12383 26.9774 1.04179 27.3137 1.03633 27.6446C1.01718 28.8203 0.73281 29.5969 2.03164 30.0262C4.34218 30.7863 6.81406 30.7809 9.24218 30.7809C10.0844 30.7781 10.8992 30.6852 11.7277 30.5266C12.4414 30.3953 13.1824 30.4008 13.907 30.3324C17.3715 30.018 20.7211 28.7957 24.0078 27.7238C25.8973 27.1086 27.7758 26.4442 29.5805 25.6074C30.8738 25.0086 33.7559 23.9778 34.2234 22.4684C34.4777 21.6481 34.3875 20.4559 34.1879 19.6438C33.9937 19.6438 33.775 19.8461 33.5973 19.95C33.3402 20.0977 33.0477 20.2399 32.777 20.3875C32.1727 20.7211 31.4918 20.9535 30.8547 21.2461C29.4711 21.8832 28.0082 22.2879 26.5809 22.7992C20.4176 25.0086 13.4285 26.909 6.825 26.4524Z" fill="white"/>
</mask>
<g mask="url(#mask1_1_419)">
<path d="M8.40274 28.8149C7.67266 28.5934 7 28.1832 6.40118 27.7239C5.86524 27.3164 5.69024 26.8379 5.60547 26.2227C5.47149 25.2301 5.79688 24.902 6.67461 24.5164C7.59336 24.109 8.59688 24.0406 9.58399 23.9203C10.8391 23.7699 13.7402 23.8082 14.2625 25.4188C14.7766 26.9992 12.8215 28.0164 11.6074 28.3992C10.7953 28.6535 10.0625 29.05 9.1875 28.968C8.91954 28.9434 8.65704 28.8887 8.40274 28.8149ZM27.2672 22.5203C27.2781 22.5668 27.2891 22.616 27.3027 22.6625C27.3766 22.9086 27.7813 23.0727 27.9863 23.1656C28.4785 23.3899 29.1074 23.5512 29.6516 23.5512C30.1383 23.5485 30.6168 23.4965 31.068 23.3625C31.5875 23.2067 32.0742 22.9414 32.4926 22.5149C33.1816 21.8094 33.8871 20.1086 33.2391 19.1817C32.7824 18.5309 31.8473 18.55 31.15 18.6895C29.7035 18.9766 26.8598 20.6391 27.2672 22.5203ZM16.5977 30.2914C16.3078 30.1574 16.4063 29.8457 16.5977 29.2961C16.8137 28.6836 17.1719 28.1067 17.5273 27.5653C18.1836 26.5672 18.8563 26.2992 19.9664 26.0696C21.5195 25.7496 24.1609 25.5473 25.4051 26.7696C27.1086 28.443 23.8465 28.8313 22.8074 29.0883C22.225 29.2305 21.6234 29.3426 21.0492 29.5258C20.7785 29.6106 20.4859 29.6707 20.218 29.7227C19.9582 29.7719 19.7066 29.8813 19.4359 29.8703C18.6266 29.8348 17.7898 30.3981 16.9832 30.3625C16.8137 30.3543 16.6879 30.3297 16.5977 30.2914Z" fill="#ED6C30"/>
</g>
</g>
<mask id="mask2_1_419" style="mask-type:luminance" maskUnits="userSpaceOnUse" x="1" y="4" width="33" height="31">
<path d="M33.5918 21.2899C33.5836 20.8934 33.5727 20.4969 33.5754 20.1004C33.5945 18.2438 33.4988 16.327 32.8781 14.5578C32.2656 12.8133 31.1609 11.5418 29.9141 10.2211C28.0137 8.20587 26.0203 6.17423 23.3926 5.1379C20.8277 4.12618 18.0742 4.30665 15.6242 5.54806C14.227 6.26173 12.9801 7.2297 11.7605 8.20314C10.9156 8.87579 10.109 9.58947 9.31055 10.3195C8.07735 11.4488 6.93711 12.6848 5.87891 13.9781C4.02227 16.2504 2.2668 18.777 1.66797 21.7C1.33164 23.3434 1.3836 25.0086 1.41094 26.6738C1.43828 28.3227 1.3043 31.6067 2.625 32.9027C4.01407 34.2617 6.17422 34.1551 7.97617 34.2152C12.7395 34.3793 17.2813 33.7039 21.8285 32.2875C24.6449 31.4098 27.5324 30.4637 30.0727 28.9379C30.7234 28.5496 31.3469 28.1176 31.932 27.6363C32.0469 27.5434 32.159 27.4449 32.2684 27.3492C33.6984 26.1051 33.6273 23.007 33.5918 21.2899Z" fill="white"/>
</mask>
<g mask="url(#mask2_1_419)">
<path d="M0.957038 19.7777C1.14571 19.1379 1.69805 18.3941 1.96329 18.0305C2.2586 17.6149 2.60313 17.2703 2.89571 16.852C3.25118 16.3379 3.63673 15.8457 4.04141 15.3699C5.89532 13.1852 7.97344 11.2219 10.0981 9.30235C11.9328 7.64258 13.907 5.95821 16.1191 4.82344C18.1481 3.78165 20.6117 3.2211 22.8758 3.69688C26.0285 4.35587 29.2469 7.65352 31.2348 9.97774C31.9649 10.8336 32.8207 11.7441 33.0996 12.868C33.209 13.3 33.2473 13.866 33.0422 14.2844C32.1863 16.0125 29.8184 16.7207 28.1559 17.3524C25.9274 18.2 23.6168 18.807 21.2871 19.291C17.7133 20.032 14.0875 20.4723 10.4617 20.8797C7.5879 21.2024 4.0086 22.0965 1.27149 20.7813C0.872272 20.5871 0.831257 20.207 0.957038 19.7777Z" fill="white"/>
</g>
<path d="M9.37071 34.907C8.90039 34.907 8.43008 34.8988 7.9543 34.8824L7.37188 34.866C5.59727 34.825 3.5875 34.7785 2.16016 33.3785C0.776566 32.025 0.76016 29.1484 0.749222 27.2453L0.738285 26.3976C0.710941 24.8172 0.683597 23.1875 1.01446 21.566C1.65977 18.4023 3.57383 15.739 5.35938 13.5543C6.49961 12.1598 7.67813 10.9074 8.85938 9.8246C9.5211 9.2203 10.4016 8.4328 11.3449 7.68085C12.6301 6.65546 13.9043 5.67655 15.3234 4.95194C17.9676 3.60936 20.9426 3.4535 23.6387 4.51444C26.3129 5.56991 28.2844 7.51405 30.398 9.76171C31.6586 11.0988 32.8453 12.4523 33.507 14.3363C34.1852 16.2668 34.259 18.3367 34.2426 20.1086C34.2398 20.4176 34.2453 20.7293 34.2535 21.041L34.259 21.2762C34.3 23.2012 34.3684 26.4058 32.7113 27.8523C32.5965 27.9535 32.4789 28.0519 32.3613 28.1504C31.7491 28.6521 31.1001 29.1073 30.4199 29.5121C27.8551 31.0515 24.9867 32.0058 22.0309 32.9246C17.7488 34.259 13.609 34.907 9.37071 34.907ZM19.9828 5.15155C18.591 5.15155 17.2266 5.48514 15.9305 6.14413C14.6207 6.81131 13.4559 7.70819 12.1789 8.72538C11.2684 9.45272 10.4098 10.2211 9.76446 10.8117C8.62969 11.848 7.49766 13.0566 6.39844 14.3992C4.71407 16.4609 2.91211 18.9547 2.32422 21.834C2.02344 23.3105 2.04805 24.798 2.07539 26.3758L2.08633 27.2371C2.09453 28.8176 2.11094 31.4617 3.09532 32.4242C4.14805 33.4551 5.80235 33.4933 7.40469 33.5289L8.00078 33.5453C8.46016 33.5617 8.9168 33.5699 9.37071 33.5699C13.4723 33.5699 17.4836 32.941 21.6316 31.6504C24.5082 30.7535 27.2918 29.8293 29.7309 28.3664C30.3734 27.9808 30.9723 27.5598 31.5109 27.1195C31.6176 27.032 31.727 26.939 31.8336 26.8461C33.0203 25.8098 32.9574 22.8867 32.9246 21.3144L32.9191 21.0683C32.9137 20.743 32.9055 20.4176 32.9082 20.0949C32.9246 18.4406 32.859 16.5129 32.2492 14.7765C31.6723 13.1414 30.6305 11.9519 29.4273 10.6777C27.423 8.55038 25.5664 6.71288 23.1465 5.75858C22.1399 5.35781 21.0663 5.15182 19.9828 5.15155Z" fill="#FCC21B"/>
<path d="M26.827 6.26992C26.6684 5.59726 26.4605 4.95469 26.2227 4.3832C25.6758 3.05429 24.798 1.24961 23.4664 0.541404C21.9105 -0.289846 19.909 0.125779 18.4898 1.05547C17.1336 1.94414 15.7035 3.41797 14.8203 4.77422C14.3527 5.48515 13.9645 6.27265 13.6664 7.07109C13.3438 7.93242 13.259 9.13554 13.3027 10.0461C13.4121 12.2992 15.2223 13.9043 17.2457 14.5961C17.7926 14.7875 18.3723 14.9379 18.9465 15.0227C19.7832 15.1484 20.6418 15.1566 21.4812 15.0582C22.7883 14.9133 24.1582 14.5578 25.1973 13.7129C27.3164 11.9875 27.4449 8.88125 26.827 6.26992Z" fill="#ED6C30"/>
<path d="M19.4223 3.36602C19.1434 3.15001 18.6047 3.62305 18.427 3.79532C18.1289 4.0879 17.8746 4.46797 17.8035 4.8836C17.6805 5.61915 18.5199 6.21797 19.0668 5.60821C19.332 5.31016 19.507 4.94649 19.559 4.55001C19.5945 4.28477 19.641 3.64493 19.477 3.42344C19.4629 3.4007 19.4443 3.38114 19.4223 3.36602ZM20.1633 8.10743C19.8379 7.97891 19.4496 8.57774 19.3238 8.79649C19.116 9.15743 18.9766 9.59493 19.0231 10.0133C19.1078 10.7543 20.0785 11.1016 20.4367 10.366C20.6117 10.0051 20.6801 9.60587 20.6227 9.21211C20.5844 8.94962 20.4559 8.32071 20.2371 8.15391C20.2125 8.1293 20.1879 8.11837 20.1633 8.10743ZM15.7582 8.17032C15.4109 8.10469 15.1512 8.77188 15.0719 9.00977C14.9434 9.40352 14.8914 9.86016 15.0199 10.2621C15.2496 10.9703 16.2723 11.118 16.4746 10.325C16.5758 9.93946 16.5594 9.53204 16.4254 9.15743C16.3352 8.90587 16.0836 8.31524 15.8348 8.19493C15.811 8.18206 15.785 8.17372 15.7582 8.17032ZM22.4766 4.70313C22.7883 4.53907 23.2367 5.09415 23.3844 5.30196C23.6277 5.63555 23.8137 6.05665 23.8109 6.47774C23.8082 7.22423 22.8758 7.67266 22.441 6.9754C22.2289 6.63879 22.1223 6.24648 22.1348 5.84883C22.143 5.58087 22.2059 4.94102 22.4055 4.74962C22.4328 4.73321 22.4547 4.7168 22.4766 4.70313ZM23.7234 9.96954C24.0707 10.0242 24.0981 10.7379 24.0926 10.9922C24.0844 11.4078 23.9832 11.8535 23.7289 12.1899C23.2777 12.7832 22.2633 12.5836 22.3344 11.766C22.3672 11.3695 22.5148 10.9922 22.7664 10.6805C22.9359 10.4727 23.3652 9.99962 23.6414 9.9668C23.6715 9.96407 23.6988 9.9668 23.7234 9.96954Z" fill="white"/>
</g>
<defs>
<clipPath id="clip0_1_419">
<rect width="35" height="35" fill="white"/>
</clipPath>
</defs>
</svg>
