<svg width="35" height="35" viewBox="0 0 35 35" fill="none" xmlns="http://www.w3.org/2000/svg">
<path d="M9.72344 11.1371C9.56758 12.7996 9.45821 15.7418 10.4398 16.9941C10.4398 16.9941 9.97774 13.7621 14.1203 9.70702C15.7883 8.0746 16.1738 5.85428 15.5914 4.18905C15.2605 3.24569 14.6563 2.46639 14.1313 1.92225C13.825 1.60233 14.0602 1.0746 14.5059 1.09374C17.202 1.21405 21.5715 1.96327 23.4281 6.62264C24.243 8.66796 24.3031 10.7816 23.9148 12.9308C23.6688 14.3035 22.7938 17.3551 24.7898 17.7297C26.2145 17.9976 26.9035 16.8656 27.2125 16.0508C27.341 15.7117 27.7867 15.6269 28.0273 15.8976C30.4336 18.6348 30.6387 21.8586 30.141 24.634C29.1785 29.9988 23.7453 33.9035 18.3477 33.9035C11.6047 33.9035 6.23711 30.0453 4.84531 23.0617C4.28477 20.2426 4.56914 14.6644 8.9168 10.7269C9.23946 10.4316 9.76719 10.6941 9.72344 11.1371Z" fill="url(#paint0_radial_1_393)"/>
<path d="M20.8113 21.1695C18.3258 17.9703 19.4387 14.3199 20.0484 12.8652C20.1305 12.6738 19.9117 12.4934 19.7395 12.6109C18.6703 13.3383 16.4801 15.05 15.4602 17.459C14.0793 20.7156 14.1777 22.3098 14.9953 24.2566C15.4875 25.4297 14.916 25.6785 14.6289 25.7223C14.35 25.766 14.093 25.5801 13.8879 25.3859C13.298 24.8194 12.8776 24.0998 12.6738 23.3078C12.6301 23.1383 12.4086 23.0918 12.3074 23.2312C11.5418 24.2894 11.1453 25.9875 11.1262 27.1879C11.066 30.8984 14.1312 33.9062 17.8391 33.9062C22.5121 33.9062 25.9164 28.7383 23.2313 24.418C22.452 23.1602 21.7191 22.3371 20.8113 21.1695Z" fill="url(#paint1_radial_1_393)"/>
<defs>
<radialGradient id="paint0_radial_1_393" cx="0" cy="0" r="1" gradientUnits="userSpaceOnUse" gradientTransform="translate(17.0121 33.9885) rotate(-179.751) scale(19.3013 31.6696)">
<stop offset="0.314" stop-color="#FF9800"/>
<stop offset="0.662" stop-color="#FF6D00"/>
<stop offset="0.972" stop-color="#F44336"/>
</radialGradient>
<radialGradient id="paint1_radial_1_393" cx="0" cy="0" r="1" gradientUnits="userSpaceOnUse" gradientTransform="translate(18.0961 14.7816) rotate(90.5787) scale(20.1951 15.1983)">
<stop offset="0.214" stop-color="#FFF176"/>
<stop offset="0.328" stop-color="#FFF27D"/>
<stop offset="0.487" stop-color="#FFF48F"/>
<stop offset="0.672" stop-color="#FFF7AD"/>
<stop offset="0.793" stop-color="#FFF9C4"/>
<stop offset="0.822" stop-color="#FFF8BD" stop-opacity="0.804"/>
<stop offset="0.863" stop-color="#FFF6AB" stop-opacity="0.529"/>
<stop offset="0.91" stop-color="#FFF38D" stop-opacity="0.209"/>
<stop offset="0.941" stop-color="#FFF176" stop-opacity="0"/>
</radialGradient>
</defs>
</svg>
