<svg width="35" height="35" viewBox="0 0 35 35" fill="none" xmlns="http://www.w3.org/2000/svg">
<g clip-path="url(#clip0_1_397)">
<path d="M2.41883 32.583C4.76189 34.9261 7.38008 36.1093 9.89328 33.5961C11.6773 31.812 11.2233 28.4657 8.87925 26.1207C6.53522 23.7776 3.18981 23.3236 1.40481 25.1076C-1.10839 27.6208 0.0748067 30.238 2.41883 32.583ZM8.78981 26.2111C10.5476 27.9689 10.8879 30.4791 9.55009 31.8179C7.66592 33.702 5.70203 32.8144 3.94328 31.0566C2.18453 29.2989 1.29786 27.3369 3.183 25.4508C4.52078 24.113 7.03106 24.4533 8.78981 26.2111ZM32.582 2.41788C30.239 0.0738542 27.6218 -1.10837 25.1076 1.40483C23.3236 3.18885 23.7776 6.53524 26.1216 8.87927C28.4656 11.2233 31.8101 11.6773 33.5961 9.89233C36.1092 7.37913 34.9261 4.76094 32.582 2.41788ZM26.2111 8.78885C24.4533 7.03108 24.113 4.52177 25.4508 3.18302C27.3349 1.29885 29.2988 2.18552 31.0576 3.9433C32.8163 5.70108 33.703 7.66399 31.8179 9.54913C30.4801 10.8869 27.9698 10.5466 26.2111 8.78885Z" fill="#292F33"/>
<path d="M17.5 34.0278C26.628 34.0278 34.0278 26.628 34.0278 17.5C34.0278 8.37197 26.628 0.972229 17.5 0.972229C8.37196 0.972229 0.972221 8.37197 0.972221 17.5C0.972221 26.628 8.37196 34.0278 17.5 34.0278Z" fill="#292F33"/>
<path d="M30.7222 17.5C30.7222 24.8024 24.8024 30.7222 17.5 30.7222C10.1976 30.7222 4.27778 24.8024 4.27778 17.5C4.27778 10.1976 10.1976 4.27777 17.5 4.27777C24.8024 4.27777 30.7222 10.1976 30.7222 17.5Z" fill="#FFAC33"/>
<path d="M18.9049 10.3687L16.4364 7.90028C16.6212 7.68537 16.715 7.40691 16.698 7.12397C16.6809 6.84103 16.5543 6.57587 16.3449 6.38476C16.1356 6.19364 15.86 6.09159 15.5767 6.10027C15.2934 6.10895 15.0246 6.22767 14.8274 6.43125C14.5649 6.69375 14.4657 7.05639 14.525 7.39472C14.296 7.354 14.06 7.38741 13.8513 7.4901C13.6425 7.59279 13.472 7.75939 13.3646 7.96568C13.2571 8.17196 13.2182 8.40716 13.2537 8.63705C13.2891 8.86694 13.3969 9.07953 13.5615 9.24389C13.965 9.64736 14.6018 9.66486 15.0306 9.30611L17.499 11.7736L18.9049 10.3687Z" fill="#FFE8B6"/>
<path d="M26.9004 19.7711C27.6033 19.0682 29.3806 16.0514 26.9208 13.5917C25.2068 11.8776 23.8253 11.9758 21.2557 11.339C20.2018 10.9871 18.8271 9.72027 18.4761 9.36929C18.1242 9.72027 18.2476 11.0055 18.2476 11.0055C18.2476 11.0055 16.7164 11.13 16.3644 11.481C16.7154 11.8319 18.3487 13.3768 18.6346 14.1011C19.4026 16.5394 19.3151 17.78 21.0301 19.493C23.8408 22.3037 26.1985 20.474 26.9004 19.7711Z" fill="#C1694F"/>
<path d="M9.07375 16.0417C9.07375 17.921 12.0867 19.4444 10.2083 19.4444C9.76148 19.4444 9.31899 19.3564 8.90615 19.1854C8.4933 19.0144 8.11819 18.7638 7.80221 18.4478C7.48623 18.1318 7.23558 17.7567 7.06458 17.3438C6.89357 16.931 6.80556 16.4885 6.80556 16.0417C6.80556 15.5948 6.89357 15.1523 7.06458 14.7395C7.23558 14.3266 7.48623 13.9515 7.80221 13.6355C8.11819 13.3196 8.4933 13.0689 8.90615 12.8979C9.31899 12.7269 9.76148 12.6389 10.2083 12.6389C12.0876 12.6389 9.07375 14.1624 9.07375 16.0417ZM17.5175 25.2681C19.0721 26.0176 21.5386 24.1335 20.7881 25.689C20.4273 26.436 19.7846 27.0091 19.0014 27.2822C18.2181 27.5554 17.3584 27.5061 16.6114 27.1454C15.8644 26.7847 15.2913 26.142 15.0182 25.3587C14.7451 24.5754 14.7943 23.7157 15.155 22.9687C15.9056 21.4132 15.9629 24.5175 17.5175 25.2681Z" fill="#77B255"/>
<path d="M14.5833 18.4722C15.6572 18.4722 16.5278 17.6017 16.5278 16.5278C16.5278 15.4539 15.6572 14.5833 14.5833 14.5833C13.5094 14.5833 12.6389 15.4539 12.6389 16.5278C12.6389 17.6017 13.5094 18.4722 14.5833 18.4722Z" fill="#F4900C"/>
<path d="M23.3333 24.3056C23.8703 24.3056 24.3056 23.8703 24.3056 23.3333C24.3056 22.7964 23.8703 22.3611 23.3333 22.3611C22.7964 22.3611 22.3611 22.7964 22.3611 23.3333C22.3611 23.8703 22.7964 24.3056 23.3333 24.3056Z" fill="#F4900C"/>
<path d="M10.6945 23.3333C11.2314 23.3333 11.6667 22.8981 11.6667 22.3611C11.6667 21.8242 11.2314 21.3889 10.6945 21.3889C10.1575 21.3889 9.72223 21.8242 9.72223 22.3611C9.72223 22.8981 10.1575 23.3333 10.6945 23.3333Z" fill="#F4900C"/>
</g>
<defs>
<clipPath id="clip0_1_397">
<rect width="35" height="35" fill="white"/>
</clipPath>
</defs>
</svg>
