<svg width="26" height="35" viewBox="0 0 26 35" fill="none" xmlns="http://www.w3.org/2000/svg">
<path opacity="0.85" d="M17.4809 6.92343C8.15118 7.0082 7.11212 9.53203 7.11212 9.53203C7.11212 9.53203 9.76447 28.2926 10.0406 30.1328C10.3168 31.973 13.4695 33.8269 17.4809 33.8269C21.4922 33.8269 24.6449 31.9703 24.9211 30.1328C25.1973 28.2926 27.8824 9.65781 27.8824 9.65781C27.8824 9.65781 26.8106 7.0082 17.4809 6.92343Z" fill="#BAE2FD"/>
<path d="M8.28516 17.582C8.99883 22.709 9.8793 29.0281 10.0434 30.1301C10.3195 31.9703 13.4723 33.8242 17.4836 33.8242C21.4949 33.8242 24.6477 31.9676 24.9238 30.1301C25.0852 29.05 25.9301 23.0016 26.6355 17.9183C26.6355 17.9183 19.95 15.4355 15.9168 15.9305C11.8836 16.4226 8.28516 17.582 8.28516 17.582Z" fill="url(#paint0_linear_1_442)"/>
<path d="M26.5836 17.5109C27.0785 18.7605 24.552 22.7801 17.3168 19.7094C10.4563 16.7945 8.28516 17.582 8.28516 17.582C9.29141 16.5785 11.3121 15.2031 16.2859 15.2031C21.927 15.2031 25.9875 16.0016 26.5836 17.5109Z" fill="url(#paint1_radial_1_442)"/>
<path d="M19.2774 10.5027C18.6484 12.6984 16.8246 18.6102 16.8246 18.6102C16.8246 18.6102 17.6285 19.2391 18.9656 19.2418C20.4231 19.2418 20.6527 18.6703 20.6527 18.6703C20.6527 18.6703 22.4438 12.8543 23.0535 10.6914C23.0535 10.6914 22.4738 10.7926 21.0274 10.7817C19.5754 10.7734 19.2774 10.5027 19.2774 10.5027Z" fill="#9575CD"/>
<path d="M23.2203 25.0168C23.9392 25.0168 24.5219 24.4524 24.5219 23.7562C24.5219 23.0601 23.9392 22.4957 23.2203 22.4957C22.5015 22.4957 21.9188 23.0601 21.9188 23.7562C21.9188 24.4524 22.5015 25.0168 23.2203 25.0168Z" fill="url(#paint2_radial_1_442)"/>
<path d="M18.9109 24.6613C19.6298 24.6613 20.2125 24.097 20.2125 23.4008C20.2125 22.7046 19.6298 22.1402 18.9109 22.1402C18.1921 22.1402 17.6094 22.7046 17.6094 23.4008C17.6094 24.097 18.1921 24.6613 18.9109 24.6613Z" fill="url(#paint3_radial_1_442)"/>
<path d="M16.3078 30.234C17.0267 30.234 17.6094 29.6696 17.6094 28.9734C17.6094 28.2773 17.0267 27.7129 16.3078 27.7129C15.589 27.7129 15.0063 28.2773 15.0063 28.9734C15.0063 29.6696 15.589 30.234 16.3078 30.234Z" fill="url(#paint4_radial_1_442)"/>
<path d="M20.0402 30.0535C20.7591 30.0535 21.3418 29.4891 21.3418 28.793C21.3418 28.0968 20.7591 27.5324 20.0402 27.5324C19.3214 27.5324 18.7387 28.0968 18.7387 28.793C18.7387 29.4891 19.3214 30.0535 20.0402 30.0535Z" fill="url(#paint5_radial_1_442)"/>
<path d="M20.0402 30.0535C20.7591 30.0535 21.3418 29.4891 21.3418 28.793C21.3418 28.0968 20.7591 27.5324 20.0402 27.5324C19.3214 27.5324 18.7387 28.0968 18.7387 28.793C18.7387 29.4891 19.3214 30.0535 20.0402 30.0535Z" fill="url(#paint6_radial_1_442)"/>
<path d="M18.9109 24.6613C19.6298 24.6613 20.2125 24.097 20.2125 23.4008C20.2125 22.7046 19.6298 22.1402 18.9109 22.1402C18.1921 22.1402 17.6094 22.7046 17.6094 23.4008C17.6094 24.097 18.1921 24.6613 18.9109 24.6613Z" fill="url(#paint7_radial_1_442)"/>
<path d="M23.2203 25.0168C23.9392 25.0168 24.5219 24.4524 24.5219 23.7562C24.5219 23.0601 23.9392 22.4957 23.2203 22.4957C22.5015 22.4957 21.9188 23.0601 21.9188 23.7562C21.9188 24.4524 22.5015 25.0168 23.2203 25.0168Z" fill="url(#paint8_radial_1_442)"/>
<path d="M11.8234 29.9551C12.4849 29.9551 13.0211 29.4348 13.0211 28.793C13.0211 28.1512 12.4849 27.6309 11.8234 27.6309C11.162 27.6309 10.6258 28.1512 10.6258 28.793C10.6258 29.4348 11.162 29.9551 11.8234 29.9551Z" fill="url(#paint9_radial_1_442)"/>
<path d="M11.8234 29.9551C12.4849 29.9551 13.0211 29.4348 13.0211 28.793C13.0211 28.1512 12.4849 27.6309 11.8234 27.6309C11.162 27.6309 10.6258 28.1512 10.6258 28.793C10.6258 29.4348 11.162 29.9551 11.8234 29.9551Z" fill="url(#paint10_radial_1_442)"/>
<path d="M22.5395 31.6476C23.2009 31.6476 23.7371 31.1273 23.7371 30.4855C23.7371 29.8437 23.2009 29.3234 22.5395 29.3234C21.878 29.3234 21.3418 29.8437 21.3418 30.4855C21.3418 31.1273 21.878 31.6476 22.5395 31.6476Z" fill="url(#paint11_radial_1_442)"/>
<path d="M22.5395 31.6476C23.2009 31.6476 23.7371 31.1273 23.7371 30.4855C23.7371 29.8437 23.2009 29.3234 22.5395 29.3234C21.878 29.3234 21.3418 29.8437 21.3418 30.4855C21.3418 31.1273 21.878 31.6476 22.5395 31.6476Z" fill="url(#paint12_radial_1_442)"/>
<path d="M14.9953 28.9734C14.9953 28.2762 15.5258 27.7539 16.2422 27.7129C16.9558 27.6719 17.6203 28.2078 17.6203 28.9051C17.6203 29.6024 17.1719 30.2723 16.2941 30.2367C15.5777 30.2039 14.9953 29.668 14.9953 28.9734Z" fill="url(#paint13_radial_1_442)"/>
<path d="M17.9703 33.2883C18.6892 33.2883 19.2719 32.7239 19.2719 32.0277C19.2719 31.3315 18.6892 30.7672 17.9703 30.7672C17.2515 30.7672 16.6688 31.3315 16.6688 32.0277C16.6688 32.7239 17.2515 33.2883 17.9703 33.2883Z" fill="url(#paint14_radial_1_442)"/>
<path d="M16.6578 32.0277C16.6578 31.3305 17.1883 30.8082 17.9047 30.7672C18.6184 30.7262 19.2828 31.2621 19.2828 31.9594C19.2828 32.6566 18.8344 33.3266 17.9566 33.291C17.2402 33.2609 16.6578 32.725 16.6578 32.0277Z" fill="url(#paint15_radial_1_442)"/>
<path d="M14.2926 27.8824C15.0114 27.8824 15.5942 27.3181 15.5942 26.6219C15.5942 25.9257 15.0114 25.3613 14.2926 25.3613C13.5738 25.3613 12.991 25.9257 12.991 26.6219C12.991 27.3181 13.5738 27.8824 14.2926 27.8824Z" fill="url(#paint16_radial_1_442)"/>
<path d="M12.9801 26.6219C12.9801 25.9246 13.5105 25.4024 14.2269 25.3613C14.9406 25.3203 15.6051 25.8563 15.6051 26.5535C15.6051 27.2508 15.1566 27.9207 14.2789 27.8852C13.5625 27.8551 12.9801 27.3191 12.9801 26.6219Z" fill="url(#paint17_radial_1_442)"/>
<path d="M17.6094 27.4176C18.3282 27.4176 18.9109 26.8532 18.9109 26.157C18.9109 25.4609 18.3282 24.8965 17.6094 24.8965C16.8905 24.8965 16.3078 25.4609 16.3078 26.157C16.3078 26.8532 16.8905 27.4176 17.6094 27.4176Z" fill="url(#paint18_radial_1_442)"/>
<path d="M16.2969 26.157C16.2969 25.4598 16.8273 24.9375 17.5438 24.8965C18.2574 24.8555 18.9219 25.3914 18.9219 26.0887C18.9219 26.7859 18.4734 27.4559 17.5957 27.4203C16.8793 27.3875 16.2969 26.8543 16.2969 26.157Z" fill="url(#paint19_radial_1_442)"/>
<path d="M21.5906 28.4649C22.3095 28.4649 22.8922 27.9005 22.8922 27.2043C22.8922 26.5081 22.3095 25.9438 21.5906 25.9438C20.8718 25.9438 20.2891 26.5081 20.2891 27.2043C20.2891 27.9005 20.8718 28.4649 21.5906 28.4649Z" fill="url(#paint20_radial_1_442)"/>
<path d="M20.2781 27.2043C20.2781 26.507 20.8086 25.9847 21.525 25.9437C22.2387 25.9027 22.9031 26.4387 22.9031 27.1359C22.9031 27.8332 22.4547 28.5031 21.577 28.4676C20.8606 28.4348 20.2781 27.9015 20.2781 27.2043Z" fill="url(#paint21_radial_1_442)"/>
<path d="M11.7086 25.6813C12.4274 25.6813 13.0102 25.1169 13.0102 24.4207C13.0102 23.7245 12.4274 23.1602 11.7086 23.1602C10.9898 23.1602 10.407 23.7245 10.407 24.4207C10.407 25.1169 10.9898 25.6813 11.7086 25.6813Z" fill="url(#paint22_radial_1_442)"/>
<path d="M10.3961 24.4207C10.3961 23.7234 10.9266 23.2012 11.643 23.1602C12.3566 23.1191 13.0211 23.6551 13.0211 24.3524C13.0211 25.0496 12.5727 25.7195 11.6949 25.684C10.9785 25.6539 10.3961 25.118 10.3961 24.4207Z" fill="url(#paint23_radial_1_442)"/>
<path d="M14.1149 32.4762C14.8337 32.4762 15.4164 31.9118 15.4164 31.2156C15.4164 30.5194 14.8337 29.9551 14.1149 29.9551C13.396 29.9551 12.8133 30.5194 12.8133 31.2156C12.8133 31.9118 13.396 32.4762 14.1149 32.4762Z" fill="url(#paint24_radial_1_442)"/>
<path d="M12.8023 31.2183C12.8023 30.5211 13.3328 29.9988 14.0492 29.9578C14.7629 29.9168 15.4273 30.4527 15.4273 31.15C15.4273 31.8473 14.9789 32.5172 14.1012 32.4816C13.3848 32.4488 12.8023 31.9129 12.8023 31.2183Z" fill="url(#paint25_radial_1_442)"/>
<path d="M27.702 10.9676C27.7457 10.7133 28 9.96952 27.8441 9.43085C27.8441 9.43085 27.2754 11.9191 17.5 11.9191C7.72462 11.9191 7.10665 9.45819 7.10665 9.45819C7.04922 9.95311 7.25704 10.7105 7.29805 10.9676C7.43751 11.8015 6.84415 11.7906 6.84415 11.7906C6.84415 11.7906 6.93985 12.7039 8.58047 12.5371C8.88126 12.507 9.66602 12.3293 10.0899 12.8105C10.4945 13.2699 10.8473 13.6937 11.5445 13.907C12.5399 14.2078 13.3109 13.4394 14.5359 13.7019C15.2906 13.8633 15.7719 14.3308 17.0598 14.4676C18.4844 14.6207 18.9738 13.8687 19.7395 13.7566C21.1231 13.5543 21.5879 14.0683 22.7309 14.0355C24.0488 14 24.4809 13.3656 24.984 13.0211C25.7277 12.5125 26.343 12.8269 26.6465 12.857C28.2871 13.0266 28.1586 11.7961 28.1586 11.7961C28.1586 11.7961 27.5625 11.7988 27.702 10.9676Z" fill="#33AC71"/>
<path d="M17.4781 6.38477C11.602 6.38477 7.11212 7.79297 7.11212 9.5293C7.11212 11.2656 11.5992 12.6738 17.4781 12.6738C23.357 12.6738 27.8442 11.2656 27.8442 9.5293C27.8442 7.79297 23.3543 6.38477 17.4781 6.38477ZM20.9891 10.5656C19.6875 10.5656 18.6348 10.1883 18.6348 9.72617C18.6348 9.26133 19.6902 8.88672 20.9891 8.88672C22.2879 8.88672 23.3434 9.26406 23.3434 9.72617C23.3434 10.191 22.2879 10.5656 20.9891 10.5656Z" fill="#72E6AC"/>
<path d="M24.0106 1.28515C22.9305 0.995305 22.0527 1.29882 21.8066 1.99882L19.3266 10.3441C19.3266 10.3441 19.8324 10.6066 21.3555 10.6066C22.5996 10.6066 23.2777 9.9914 23.2777 9.9914C23.2777 9.9914 25.2109 3.15546 25.2902 2.88749C25.4762 2.27499 24.9539 1.53945 24.0106 1.28515Z" fill="#B39DDB"/>
<path d="M21.3555 10.6066C22.5996 10.6066 23.2777 9.99141 23.2777 9.99141L23.5785 8.92773C23.5785 8.92773 22.5313 9.72617 21.4156 9.98594C20.218 10.2648 19.3266 10.3441 19.3266 10.3441C19.3266 10.3441 19.8324 10.6066 21.3555 10.6066Z" fill="#9575CD"/>
<path d="M24.947 2.86022C25.0875 2.35068 24.5925 1.76971 23.8412 1.56258C23.09 1.35545 22.3672 1.6006 22.2267 2.11014C22.0862 2.61968 22.5813 3.20066 23.3325 3.40778C24.0837 3.61491 24.8065 3.36976 24.947 2.86022Z" fill="#7E57C2"/>
<path d="M19.6137 9.37889L19.7367 8.966C19.5754 9.00975 19.4031 9.06444 19.2363 9.13553C18.8754 9.28593 18.6813 9.41444 18.632 9.67421C18.591 9.89296 18.8043 10.057 18.8043 10.057C18.8043 10.057 18.7934 9.87382 18.8945 9.76991C19.1024 9.55389 19.2227 9.50741 19.6137 9.37889Z" fill="#33AC71"/>
<path opacity="0.79" d="M9.11367 15.6434C8.87852 13.8223 10.7078 13.6363 11.0086 17.0488L11.118 20.8551C11.118 20.8551 11.2602 21.9461 10.7242 22.0637C9.92305 22.2387 9.83281 21.0574 9.83281 21.0574C9.83281 21.0574 9.29688 17.0461 9.11367 15.6434Z" fill="white"/>
<defs>
<linearGradient id="paint0_linear_1_442" x1="17.459" y1="19.4903" x2="17.459" y2="25.5741" gradientUnits="userSpaceOnUse">
<stop stop-color="#EEB68E"/>
<stop offset="1" stop-color="#F5CEA7"/>
</linearGradient>
<radialGradient id="paint1_radial_1_442" cx="0" cy="0" r="1" gradientUnits="userSpaceOnUse" gradientTransform="translate(13.7271 18.6241) rotate(18.7647) scale(18.3489 12.6691)">
<stop stop-color="#C48C63"/>
<stop offset="1" stop-color="#EEB68E"/>
</radialGradient>
<radialGradient id="paint2_radial_1_442" cx="0" cy="0" r="1" gradientUnits="userSpaceOnUse" gradientTransform="translate(23.5307 23.0129) scale(1.54984 1.50319)">
<stop stop-color="#6D4C41"/>
<stop offset="0.999" stop-color="#3D3832"/>
</radialGradient>
<radialGradient id="paint3_radial_1_442" cx="0" cy="0" r="1" gradientUnits="userSpaceOnUse" gradientTransform="translate(19.2196 22.6596) scale(1.54984 1.50319)">
<stop stop-color="#6D4C41"/>
<stop offset="0.999" stop-color="#3D3832"/>
</radialGradient>
<radialGradient id="paint4_radial_1_442" cx="0" cy="0" r="1" gradientUnits="userSpaceOnUse" gradientTransform="translate(16.6184 28.2295) scale(1.54984 1.50319)">
<stop stop-color="#6D4C41"/>
<stop offset="0.999" stop-color="#3D3832"/>
</radialGradient>
<radialGradient id="paint5_radial_1_442" cx="0" cy="0" r="1" gradientUnits="userSpaceOnUse" gradientTransform="translate(20.3503 28.0489) scale(1.54984 1.50319)">
<stop stop-color="#6D4C41"/>
<stop offset="0.999" stop-color="#3D3832"/>
</radialGradient>
<radialGradient id="paint6_radial_1_442" cx="0" cy="0" r="1" gradientUnits="userSpaceOnUse" gradientTransform="translate(20.2169 28.7268) scale(1.54164 1.49524)">
<stop offset="0.528" stop-color="#F5CEA7" stop-opacity="0"/>
<stop offset="1" stop-color="#F5CEA7"/>
</radialGradient>
<radialGradient id="paint7_radial_1_442" cx="0" cy="0" r="1" gradientUnits="userSpaceOnUse" gradientTransform="translate(18.9831 23.3662) scale(1.54984 1.50319)">
<stop offset="0.567" stop-color="#F5CEA7" stop-opacity="0"/>
<stop offset="1" stop-color="#F5CEA7"/>
</radialGradient>
<radialGradient id="paint8_radial_1_442" cx="0" cy="0" r="1" gradientUnits="userSpaceOnUse" gradientTransform="translate(23.2939 23.7194) scale(1.54984 1.50319)">
<stop offset="0.567" stop-color="#F5CEA7" stop-opacity="0"/>
<stop offset="1" stop-color="#F5CEA7"/>
</radialGradient>
<radialGradient id="paint9_radial_1_442" cx="0" cy="0" r="1" gradientUnits="userSpaceOnUse" gradientTransform="translate(12.1095 28.1075) scale(1.42734 1.38438)">
<stop stop-color="#6D4C41"/>
<stop offset="0.999" stop-color="#3D3832"/>
</radialGradient>
<radialGradient id="paint10_radial_1_442" cx="0" cy="0" r="1" gradientUnits="userSpaceOnUse" gradientTransform="translate(11.8579 28.6679) scale(1.50992 1.38596)">
<stop offset="0.567" stop-color="#F5CEA7" stop-opacity="0"/>
<stop offset="1" stop-color="#F5CEA7"/>
</radialGradient>
<radialGradient id="paint11_radial_1_442" cx="0" cy="0" r="1" gradientUnits="userSpaceOnUse" gradientTransform="translate(22.8241 29.8006) scale(1.42734 1.38438)">
<stop stop-color="#6D4C41"/>
<stop offset="0.999" stop-color="#3D3832"/>
</radialGradient>
<radialGradient id="paint12_radial_1_442" cx="0" cy="0" r="1" gradientUnits="userSpaceOnUse" gradientTransform="translate(22.5725 30.3607) scale(1.50992 1.38596)">
<stop offset="0.567" stop-color="#F5CEA7" stop-opacity="0"/>
<stop offset="1" stop-color="#F5CEA7"/>
</radialGradient>
<radialGradient id="paint13_radial_1_442" cx="0" cy="0" r="1" gradientUnits="userSpaceOnUse" gradientTransform="translate(16.2881 29.0501) scale(1.65102 1.51547)">
<stop offset="0.567" stop-color="#F5CEA7" stop-opacity="0"/>
<stop offset="1" stop-color="#F5CEA7"/>
</radialGradient>
<radialGradient id="paint14_radial_1_442" cx="0" cy="0" r="1" gradientUnits="userSpaceOnUse" gradientTransform="translate(18.2804 31.2847) scale(1.54984 1.50319)">
<stop stop-color="#6D4C41"/>
<stop offset="0.999" stop-color="#3D3832"/>
</radialGradient>
<radialGradient id="paint15_radial_1_442" cx="0" cy="0" r="1" gradientUnits="userSpaceOnUse" gradientTransform="translate(17.9498 32.1034) scale(1.58184 1.46858)">
<stop offset="0.567" stop-color="#F5CEA7" stop-opacity="0"/>
<stop offset="1" stop-color="#F5CEA7"/>
</radialGradient>
<radialGradient id="paint16_radial_1_442" cx="0" cy="0" r="1" gradientUnits="userSpaceOnUse" gradientTransform="translate(14.6021 25.8798) scale(1.54984 1.50319)">
<stop stop-color="#6D4C41"/>
<stop offset="0.999" stop-color="#3D3832"/>
</radialGradient>
<radialGradient id="paint17_radial_1_442" cx="0" cy="0" r="1" gradientUnits="userSpaceOnUse" gradientTransform="translate(14.2718 26.7003) scale(1.65102 1.51547)">
<stop offset="0.567" stop-color="#F5CEA7" stop-opacity="0"/>
<stop offset="1" stop-color="#F5CEA7"/>
</radialGradient>
<radialGradient id="paint18_radial_1_442" cx="0" cy="0" r="1" gradientUnits="userSpaceOnUse" gradientTransform="translate(17.9192 25.4138) scale(1.54984 1.50319)">
<stop stop-color="#6D4C41"/>
<stop offset="0.999" stop-color="#3D3832"/>
</radialGradient>
<radialGradient id="paint19_radial_1_442" cx="0" cy="0" r="1" gradientUnits="userSpaceOnUse" gradientTransform="translate(17.5889 26.234) scale(1.56543 1.49733)">
<stop offset="0.567" stop-color="#F5CEA7" stop-opacity="0"/>
<stop offset="1" stop-color="#F5CEA7"/>
</radialGradient>
<radialGradient id="paint20_radial_1_442" cx="0" cy="0" r="1" gradientUnits="userSpaceOnUse" gradientTransform="translate(21.9015 26.4606) scale(1.54984 1.50319)">
<stop stop-color="#6D4C41"/>
<stop offset="0.999" stop-color="#3D3832"/>
</radialGradient>
<radialGradient id="paint21_radial_1_442" cx="0" cy="0" r="1" gradientUnits="userSpaceOnUse" gradientTransform="translate(21.5195 27.1089) scale(1.62094 1.48786)">
<stop offset="0.507" stop-color="#F5CEA7" stop-opacity="0"/>
<stop offset="1" stop-color="#F5CEA7"/>
</radialGradient>
<radialGradient id="paint22_radial_1_442" cx="0" cy="0" r="1" gradientUnits="userSpaceOnUse" gradientTransform="translate(12.0187 23.6783) scale(1.54984 1.50319)">
<stop stop-color="#6D4C41"/>
<stop offset="0.999" stop-color="#3D3832"/>
</radialGradient>
<radialGradient id="paint23_radial_1_442" cx="0" cy="0" r="1" gradientUnits="userSpaceOnUse" gradientTransform="translate(11.6884 24.4983) scale(1.65102 1.59835)">
<stop offset="0.567" stop-color="#F5CEA7" stop-opacity="0"/>
<stop offset="1" stop-color="#F5CEA7"/>
</radialGradient>
<radialGradient id="paint24_radial_1_442" cx="0" cy="0" r="1" gradientUnits="userSpaceOnUse" gradientTransform="translate(14.4258 30.474) scale(1.54984 1.50319)">
<stop stop-color="#6D4C41"/>
<stop offset="0.999" stop-color="#3D3832"/>
</radialGradient>
<radialGradient id="paint25_radial_1_442" cx="0" cy="0" r="1" gradientUnits="userSpaceOnUse" gradientTransform="translate(14.0954 31.3801) scale(1.63652 1.58776)">
<stop offset="0.567" stop-color="#F5CEA7" stop-opacity="0"/>
<stop offset="1" stop-color="#F5CEA7"/>
</radialGradient>
</defs>
</svg>
