<svg width="18" height="18" viewBox="0 0 18 18" fill="none" xmlns="http://www.w3.org/2000/svg">
<path d="M8.50404 2.06265C8.32353 2.06265 8.16816 1.9405 8.10209 1.77252C7.91629 1.30016 7.60456 0.885342 7.19826 0.574733C6.71064 0.201964 6.11391 0 5.50012 0C4.88634 0 4.28961 0.201964 3.80199 0.574733C3.39569 0.885342 3.08396 1.30016 2.89817 1.77252C2.83209 1.9405 2.67672 2.06265 2.49621 2.06265H0.749984C0.335779 2.06265 0 2.39843 0 2.81263C0 3.22684 0.335779 3.56262 0.749984 3.56262H2.49621C2.67672 3.56262 2.83209 3.68477 2.89817 3.85275C3.08396 4.32511 3.39569 4.73992 3.80199 5.05053C4.28961 5.4233 4.88634 5.62527 5.50012 5.62527C6.11391 5.62527 6.71064 5.4233 7.19826 5.05053C7.60456 4.73992 7.91629 4.32511 8.10209 3.85275C8.16816 3.68477 8.32353 3.56262 8.50405 3.56262H17.25C17.6642 3.56262 18 3.22684 18 2.81263C18 2.39843 17.6642 2.06265 17.25 2.06265H8.50404ZM5.49975 4.1251C5.24016 4.1251 4.9864 4.04813 4.77056 3.90391C4.55472 3.7597 4.3865 3.55472 4.28716 3.31489C4.18782 3.07507 4.16183 2.81118 4.21247 2.55658C4.26311 2.30199 4.38812 2.06813 4.57167 1.88458C4.75523 1.70102 4.98909 1.57602 5.24369 1.52538C5.49829 1.47474 5.76219 1.50073 6.00202 1.60007C6.24185 1.69941 6.44683 1.86763 6.59105 2.08346C6.73527 2.2993 6.81225 2.55305 6.81225 2.81263C6.81166 3.16054 6.67318 3.49403 6.42717 3.74003C6.18116 3.98604 5.84766 4.12451 5.49975 4.1251ZM12.5003 6.18756C11.8871 6.18976 11.2915 6.39253 10.8044 6.76493C10.3983 7.0754 10.0862 7.48955 9.89921 7.96124C9.83288 8.12856 9.67781 8.25002 9.49782 8.25002H0.749985C0.33578 8.25002 0 8.5858 0 9C0 9.4142 0.335779 9.74998 0.749983 9.74998H9.49655C9.67714 9.74998 9.83255 9.87223 9.89859 10.0403C10.0842 10.5127 10.3958 10.9277 10.802 11.2384C11.2896 11.6113 11.8864 11.8134 12.5003 11.8134C13.1141 11.8134 13.7109 11.6113 14.1985 11.2384C14.6047 10.9277 14.9163 10.5127 15.1019 10.0403C15.1679 9.87223 15.3234 9.74998 15.5039 9.74998H17.25C17.6642 9.74998 18 9.4142 18 9C18 8.5858 17.6642 8.25002 17.25 8.25002H15.5027C15.3227 8.25002 15.1676 8.12856 15.1013 7.96124C14.9143 7.48955 14.6022 7.0754 14.1961 6.76493C13.709 6.39253 13.1134 6.18976 12.5003 6.18756ZM12.5003 10.3125C12.2407 10.3125 11.9869 10.2355 11.7711 10.0913C11.5552 9.94706 11.387 9.74208 11.2877 9.50226C11.1883 9.26244 11.1623 8.99854 11.213 8.74395C11.2636 8.48935 11.3886 8.25549 11.5722 8.07194C11.7557 7.88839 11.9896 7.76339 12.2442 7.71275C12.4988 7.6621 12.7627 7.6881 13.0025 7.78743C13.2424 7.88677 13.4473 8.05499 13.5916 8.27083C13.7358 8.48666 13.8127 8.74042 13.8127 9C13.8124 9.34797 13.6739 9.68157 13.4279 9.92762C13.1818 10.1737 12.8482 10.3121 12.5003 10.3125ZM5.49975 12.3749C4.88621 12.3766 4.2901 12.5792 3.80253 12.9516C3.396 13.2622 3.08357 13.6766 2.89646 14.1486C2.83013 14.3159 2.67506 14.4374 2.49508 14.4374H0.749983C0.335779 14.4374 0 14.7732 0 15.1874C0 15.6016 0.335779 15.9374 0.749983 15.9374H2.49621C2.67672 15.9374 2.83209 16.0595 2.89817 16.2275C3.08396 16.6998 3.39569 17.1147 3.80199 17.4253C4.28961 17.798 4.88634 18 5.50012 18C6.11391 18 6.71064 17.798 7.19826 17.4253C7.60456 17.1147 7.91629 16.6998 8.10209 16.2275C8.16816 16.0595 8.32353 15.9374 8.50405 15.9374H17.25C17.6642 15.9374 18 15.6016 18 15.1874C18 14.7732 17.6642 14.4374 17.25 14.4374H8.50292C8.32294 14.4374 8.16787 14.3159 8.10154 14.1486C7.91452 13.6768 7.60231 13.2626 7.19607 12.9521C6.7088 12.5797 6.11304 12.377 5.49975 12.3749ZM5.49975 16.4998C5.24016 16.4998 4.9864 16.4229 4.77056 16.2786C4.55472 16.1344 4.3865 15.9295 4.28716 15.6896C4.18782 15.4498 4.16183 15.1859 4.21247 14.9313C4.26311 14.6767 4.38812 14.4429 4.57167 14.2593C4.75523 14.0758 4.98909 13.9508 5.24369 13.9001C5.49829 13.8495 5.76219 13.8755 6.00202 13.9748C6.24185 14.0741 6.44683 14.2424 6.59105 14.4582C6.73527 14.674 6.81225 14.9278 6.81225 15.1874C6.81166 15.5353 6.67318 15.8688 6.42717 16.1148C6.18116 16.3608 5.84766 16.4992 5.49975 16.4998Z" fill="#1A1A1A"/>
</svg>
