<svg width="24" height="24" viewBox="0 0 24 24" fill="none" xmlns="http://www.w3.org/2000/svg">
<path d="M20.8213 19.7598L16.3402 15.2787C17.5614 13.7853 18.1618 11.8796 18.0172 9.95582C17.8727 8.03209 16.9943 6.2375 15.5637 4.94325C14.1331 3.64901 12.2598 2.95413 10.3312 3.00235C8.40269 3.05057 6.56644 3.8382 5.20232 5.20232C3.8382 6.56644 3.05057 8.40269 3.00235 10.3312C2.95413 12.2598 3.64901 14.1331 4.94325 15.5637C6.2375 16.9943 8.03209 17.8727 9.95582 18.0172C11.8796 18.1618 13.7853 17.5614 15.2787 16.3402L19.7598 20.8213C19.9014 20.958 20.091 21.0337 20.2878 21.032C20.4847 21.0303 20.6729 20.9513 20.8121 20.8121C20.9513 20.6729 21.0303 20.4847 21.032 20.2878C21.0337 20.091 20.958 19.9014 20.8213 19.7598ZM10.5312 16.5369C9.34338 16.5369 8.18223 16.1847 7.19459 15.5248C6.20695 14.8649 5.43718 13.9269 4.98262 12.8295C4.52806 11.7321 4.40913 10.5245 4.64086 9.35954C4.87259 8.19454 5.44459 7.12442 6.2845 6.2845C7.12442 5.44459 8.19454 4.87259 9.35954 4.64086C10.5245 4.40913 11.7321 4.52806 12.8295 4.98262C13.9269 5.43718 14.8649 6.20695 15.5248 7.19459C16.1847 8.18223 16.5369 9.34338 16.5369 10.5312C16.5351 12.1235 15.9018 13.65 14.7759 14.7759C13.65 15.9018 12.1235 16.5351 10.5312 16.5369Z" fill="#CCCCCC"/>
</svg>
