<svg width="14" height="13" viewBox="0 0 14 13" fill="none" xmlns="http://www.w3.org/2000/svg">
<path d="M12.5625 6.49187H4.84063M2.115 6.49187H1M2.115 6.49187C2.115 6.13052 2.25855 5.78396 2.51407 5.52844C2.76959 5.27292 3.11614 5.12937 3.4775 5.12937C3.83886 5.12937 4.18541 5.27292 4.44093 5.52844C4.69645 5.78396 4.84 6.13052 4.84 6.49187C4.84 6.85323 4.69645 7.19979 4.44093 7.45531C4.18541 7.71083 3.83886 7.85438 3.4775 7.85438C3.11614 7.85438 2.76959 7.71083 2.51407 7.45531C2.25855 7.19979 2.115 6.85323 2.115 6.49187ZM12.5625 10.6213H8.97M8.97 10.6213C8.97 10.9827 8.82611 11.3296 8.57053 11.5852C8.31495 11.8408 7.96832 11.9844 7.60688 11.9844C7.24552 11.9844 6.89896 11.8402 6.64344 11.5847C6.38792 11.3292 6.24437 10.9826 6.24437 10.6213M8.97 10.6213C8.97 10.2598 8.82611 9.91348 8.57053 9.65791C8.31495 9.40233 7.96832 9.25875 7.60688 9.25875C7.24552 9.25875 6.89896 9.4023 6.64344 9.65782C6.38792 9.91334 6.24437 10.2599 6.24437 10.6213M6.24437 10.6213H1M12.5625 2.3625H10.6219M7.89625 2.3625H1M7.89625 2.3625C7.89625 2.00114 8.0398 1.65459 8.29532 1.39907C8.55084 1.14355 8.89739 1 9.25875 1C9.43768 1 9.61485 1.03524 9.78016 1.10371C9.94546 1.17219 10.0957 1.27255 10.2222 1.39907C10.3487 1.52559 10.4491 1.67579 10.5175 1.84109C10.586 2.0064 10.6212 2.18357 10.6212 2.3625C10.6212 2.54143 10.586 2.7186 10.5175 2.88391C10.4491 3.04921 10.3487 3.19941 10.2222 3.32593C10.0957 3.45245 9.94546 3.55281 9.78016 3.62129C9.61485 3.68976 9.43768 3.725 9.25875 3.725C8.89739 3.725 8.55084 3.58145 8.29532 3.32593C8.0398 3.07041 7.89625 2.72386 7.89625 2.3625Z" stroke="#666666" stroke-opacity="0.4" stroke-width="1.5" stroke-miterlimit="10" stroke-linecap="round"/>
</svg>
