<svg width="34" height="34" viewBox="0 0 34 34" fill="none" xmlns="http://www.w3.org/2000/svg">
<path opacity="0.15" d="M8.85417 32.2292C8.85417 32.5109 9.71239 32.7812 11.24 32.9805C12.7677 33.1797 14.8396 33.2917 17 33.2917C19.1604 33.2917 21.2323 33.1797 22.76 32.9805C24.2876 32.7812 25.1458 32.5109 25.1458 32.2292C25.1458 31.9474 24.2876 31.6771 22.76 31.4779C21.2323 31.2786 19.1604 31.1667 17 31.1667C14.8396 31.1667 12.7677 31.2786 11.24 31.4779C9.71239 31.6771 8.85417 31.9474 8.85417 32.2292Z" fill="#45413C"/>
<path d="M28.7796 8.06791C25.1174 6.25532 21.0862 5.31232 17 5.31232C12.9138 5.31232 8.88263 6.25532 5.22041 8.06791L6.82125 11.3333C7.6937 13.0949 8.14704 15.0343 8.14583 17V20.145C8.13736 20.4896 8.25058 20.8262 8.46561 21.0957C8.68065 21.3651 8.98374 21.5502 9.32166 21.6183C9.52681 21.6537 9.73724 21.6435 9.93798 21.5884C10.1387 21.5332 10.3248 21.4345 10.4831 21.2992C10.6413 21.164 10.7678 20.9955 10.8536 20.8058C10.9393 20.6161 10.9822 20.4098 10.9792 20.2017V19.72L16.3696 30.6C16.429 30.716 16.5193 30.8134 16.6306 30.8814C16.7418 30.9494 16.8696 30.9854 17 30.9854C17.1304 30.9854 17.2582 30.9494 17.3694 30.8814C17.4807 30.8134 17.571 30.716 17.6304 30.6L19.4792 26.8671V28.3333C19.4792 28.6151 19.5911 28.8854 19.7904 29.0846C19.9896 29.2839 20.2599 29.3958 20.5417 29.3958C20.8235 29.3958 21.0937 29.2839 21.293 29.0846C21.4922 28.8854 21.6042 28.6151 21.6042 28.3333V24.225C21.5939 23.1383 21.8364 22.064 22.3125 21.0871C23.205 19.2737 24.1612 17.3542 25.1458 15.4204V17.3542C25.1458 17.636 25.2578 17.9062 25.457 18.1055C25.6563 18.3047 25.9265 18.4167 26.2083 18.4167C26.4901 18.4167 26.7604 18.3047 26.9596 18.1055C27.1589 17.9062 27.2708 17.636 27.2708 17.3542V12.75C27.2633 11.6613 27.5057 10.5854 27.9792 9.60499L28.7796 8.06791Z" fill="#FFE500"/>
<path d="M17 7.61458C20.7491 7.61349 24.4555 8.41031 27.8729 9.95208C27.9154 9.84583 27.9579 9.73249 28.0075 9.63333L28.7796 8.06791C25.1174 6.25532 21.0862 5.31232 17 5.31232C12.9138 5.31232 8.88263 6.25532 5.22041 8.06791L6.14833 9.91666C9.56189 8.39002 13.2606 7.60536 17 7.61458Z" fill="#EBCB00"/>
<path d="M21.6042 15.9375C20.7588 15.9375 19.948 16.2733 19.3503 16.8711C18.7525 17.4689 18.4167 18.2796 18.4167 19.125C18.4167 19.9704 18.7525 20.7811 19.3503 21.3789C19.948 21.9767 20.7588 22.3125 21.6042 22.3125H21.7388C22.525 20.7329 23.3608 19.04 24.2108 17.3117C23.9203 16.8885 23.5312 16.5423 23.0771 16.3029C22.623 16.0635 22.1175 15.9381 21.6042 15.9375ZM16.6458 23.375C16.6468 22.9562 16.565 22.5413 16.4051 22.1541C16.2453 21.767 16.0105 21.4152 15.7143 21.119C15.4182 20.8229 15.0664 20.5881 14.6792 20.4282C14.2921 20.2684 13.8772 20.1866 13.4583 20.1875C12.7633 20.1889 12.0882 20.4206 11.5388 20.8463L14.3083 26.435C14.9789 26.2507 15.5706 25.8516 15.9928 25.299C16.415 24.7463 16.6444 24.0705 16.6458 23.375ZM18.4167 10.2708C18.4167 11.1162 18.7525 11.927 19.3503 12.5247C19.948 13.1225 20.7588 13.4583 21.6042 13.4583C22.4496 13.4583 23.2603 13.1225 23.8581 12.5247C24.4558 11.927 24.7917 11.1162 24.7917 10.2708C24.7917 9.42547 24.4558 8.61471 23.8581 8.01694C23.2603 7.41917 22.4496 7.08334 21.6042 7.08334C20.7588 7.08334 19.948 7.41917 19.3503 8.01694C18.7525 8.61471 18.4167 9.42547 18.4167 10.2708Z" fill="#FF6242" stroke="#45413C" stroke-width="0.5" stroke-linecap="round" stroke-linejoin="round"/>
<path d="M17 5.31251C21.0868 5.30758 25.119 6.25078 28.7796 8.06793C28.7796 8.06793 30.5292 8.28751 30.8125 6.72918C31.5208 2.83334 19.9538 1.77084 17 1.77084C14.0463 1.77084 2.47917 2.83334 3.1875 6.72918C3.47084 8.28751 5.22042 8.06793 5.22042 8.06793C8.881 6.25078 12.9132 5.30758 17 5.31251Z" fill="#F0D5A8"/>
<path d="M3.21583 6.84251C5.79417 4.29959 14.45 3.54168 17 3.54168C19.55 3.54168 28.2058 4.29959 30.7842 6.84251V6.72918C31.4925 2.83334 19.9254 1.77084 16.9717 1.77084C14.0179 1.77084 2.47917 2.83334 3.1875 6.72918C3.19458 6.77168 3.20875 6.80001 3.21583 6.84251Z" fill="#F7E5C6"/>
<path d="M17 5.31251C21.0868 5.30758 25.119 6.25078 28.7796 8.06793C28.7796 8.06793 30.5292 8.28751 30.8125 6.72918C31.5208 2.83334 19.9538 1.77084 17 1.77084C14.0463 1.77084 2.47917 2.83334 3.1875 6.72918C3.47084 8.28751 5.22042 8.06793 5.22042 8.06793C8.881 6.25078 12.9132 5.30758 17 5.31251Z" stroke="#45413C" stroke-width="0.5" stroke-linecap="round" stroke-linejoin="round"/>
<path d="M8.85417 12.0417C8.85417 12.887 9.19 13.6978 9.78777 14.2956C10.3855 14.8933 11.1963 15.2292 12.0417 15.2292C12.887 15.2292 13.6978 14.8933 14.2956 14.2956C14.8933 13.6978 15.2292 12.887 15.2292 12.0417C15.2292 11.1963 14.8933 10.3855 14.2956 9.78775C13.6978 9.18998 12.887 8.85416 12.0417 8.85416C11.1963 8.85416 10.3855 9.18998 9.78777 9.78775C9.19 10.3855 8.85417 11.1963 8.85417 12.0417Z" fill="#FF6242" stroke="#45413C" stroke-width="0.5" stroke-linecap="round" stroke-linejoin="round"/>
<path d="M10.9792 19.7058V18.0625M19.4792 26.8671L17.6304 30.6C17.571 30.716 17.4807 30.8134 17.3694 30.8814C17.2582 30.9494 17.1304 30.9854 17 30.9854C16.8696 30.9854 16.7418 30.9494 16.6306 30.8814C16.5193 30.8134 16.429 30.716 16.3696 30.6L10.9792 19.72V20.2017C10.9822 20.4098 10.9393 20.6161 10.8536 20.8058C10.7678 20.9955 10.6413 21.164 10.4831 21.2992C10.3248 21.4345 10.1387 21.5332 9.93798 21.5884C9.73724 21.6435 9.52681 21.6537 9.32166 21.6183C8.98374 21.5502 8.68065 21.3651 8.46561 21.0957C8.25058 20.8262 8.13736 20.4896 8.14583 20.145V17C8.14704 15.0343 7.6937 13.0949 6.82125 11.3333L5.22041 8.06791C8.88263 6.25532 12.9138 5.31232 17 5.31232C21.0862 5.31232 25.1174 6.25532 28.7796 8.06791L27.9792 9.60499C27.5057 10.5854 27.2633 11.6613 27.2708 12.75V17.3542C27.2708 17.636 27.1589 17.9062 26.9596 18.1055C26.7604 18.3047 26.4901 18.4167 26.2083 18.4167C25.9265 18.4167 25.6563 18.3047 25.457 18.1055C25.2578 17.9062 25.1458 17.636 25.1458 17.3542V15.4204C24.1612 17.3542 23.205 19.2737 22.3125 21.0871C21.8364 22.064 21.5939 23.1383 21.6042 24.225V28.3333C21.6042 28.6151 21.4922 28.8854 21.293 29.0846C21.0937 29.2839 20.8235 29.3958 20.5417 29.3958C20.2599 29.3958 19.9896 29.2839 19.7904 29.0846C19.5911 28.8854 19.4792 28.6151 19.4792 28.3333V26.8671ZM19.4792 26.8671V25.1458M25.1458 14.1667V15.4133" stroke="#45413C" stroke-width="0.5" stroke-linecap="round" stroke-linejoin="round"/>
</svg>
